<?xml version="1.0" encoding="utf-8"?>
<!-- Generator: Adobe Illustrator 24.2.1, SVG Export Plug-In . SVG Version: 6.00 Build 0)  -->
<svg version="1.1" id="Layer_1" xmlns="http://www.w3.org/2000/svg" xmlns:xlink="http://www.w3.org/1999/xlink" x="0px" y="0px"
	 viewBox="0 0 170 72" style="enable-background:new 0 0 170 72;" xml:space="preserve">
<style type="text/css">
	.st0{fill:#FFFFFF;}
</style>
<path class="st0" d="M56.5,44.6c-1,3.7-1.3,7.6-0.7,11.4c0.6,3.7,2.5,7,5.4,9.2c3,2.2,6.5,3.4,10.2,3.6c3.7,0.3,7.5,0,11.2-0.9
	c7.4-1.7,14.5-4.7,21-8.8c6.6-4,12.6-8.9,17.9-14.5c-4.6,6.4-10.3,11.9-16.8,16.3c-6.5,4.6-13.8,7.8-21.5,9.7c-3.9,0.9-8,1.2-12,0.8
	c-4.1-0.3-8.1-1.9-11.3-4.5c-1.6-1.4-2.9-3-3.8-4.9c-0.9-1.8-1.4-3.8-1.6-5.8C54.3,52.2,54.9,48.2,56.5,44.6z"/>
<path class="st0" d="M29.7,32.8V22.4c0-3.1-2.5-5.5-5.5-5.5H5.5c-3.1,0-5.5,2.5-5.5,5.5v10.5c0,3.1,2.5,5.5,5.5,5.5h12.2l10.5,6.1
	l1.7-2.9l-5.5-3.2C27.4,38.2,29.7,35.8,29.7,32.8z M5.5,35c-1.2,0-2.2-1-2.2-2.2V22.4c0-1.2,1-2.2,2.2-2.2h18.6c1.2,0,2.2,1,2.2,2.2
	v10.5c0,1.2-1,2.2-2.2,2.2H5.5z"/>
<path class="st0" d="M83.7,16.8c-1.4,0.1-2.7,0.8-3.4,2L67.8,37.1l2.8,1.9l12.6-18.4c0.1-0.4,0.6-0.6,0.9-0.4
	c0.2,0.1,0.4,0.2,0.4,0.4L98.1,39l2.7-2L87.2,18.6C86.4,17.5,85.1,16.8,83.7,16.8z"/>
<path class="st0" d="M61.5,31.8c0,1.7-1,3.2-2.2,3.2H40.7c-1.2,0-2.2-1.5-2.2-3.2v-15h-3.4v15c0,3.6,2.5,6.6,5.5,6.6h18.6
	c3,0,5.5-3,5.5-6.6v-15h-3.4V31.8z"/>
<path class="st0" d="M130.1,34c0,0.2-0.1,0.4-0.3,0.5c-0.2,0.1-0.4,0.1-0.5-0.1l-18-17c-1.6-1.4-4-1.3-5.5,0.3c-0.6,0.7-1,1.6-1,2.6
	v18h3.3v-18c0-0.2,0.1-0.4,0.3-0.5c0.2-0.1,0.4-0.1,0.5,0.1l18,17c1.6,1.4,4.1,1.3,5.5-0.3c0.6-0.7,1-1.6,1-2.6V16.9h-3.4V34z"/>
<polygon class="st0" points="137.6,16.9 137.6,20.2 152.1,20.2 152.1,38.4 155.5,38.4 155.5,20.2 170,20.2 170,16.9 "/>
<path class="st0" d="M74.9,53.2H64.5c-1.4,0-2.6-1.2-2.6-2.6c0,0,0,0,0,0v-4.4c0-1.4,1.2-2.6,2.6-2.6l0,0h10.4v2H64.5
	c-0.3,0-0.6,0.3-0.6,0.6v4.4c0,0.3,0.3,0.6,0.6,0.6c0,0,0,0,0,0h10.4V53.2z"/>
<path class="st0" d="M86,53.2h-8.2v-9.6H86c2.6,0.1,4.7,2.4,4.6,5C90.5,51.2,88.5,53.1,86,53.2z M79.8,51.2H86
	c1.5-0.1,2.7-1.4,2.6-3c-0.1-1.4-1.2-2.5-2.6-2.6h-6.2L79.8,51.2z"/>
<path class="st0" d="M95.2,53.3h-2v-7.8c0-1.1,0.9-1.9,1.9-1.9c0.5,0,0.9,0.2,1.3,0.5l7.3,6.9v-7.3h2v7.5c0,1.1-0.9,1.9-1.9,1.9
	c-0.5,0-0.9-0.2-1.3-0.5l-7.3-6.9L95.2,53.3z"/>
<path class="st0" d="M128.6,8.3c-0.3-0.4-0.6-0.8-1-1.2l-1.1-1.1c-0.4-0.4-0.8-0.7-1.2-1c-0.4-0.3-0.8-0.6-1.3-0.8
	c-0.9-0.5-1.9-1-2.9-1.3c-0.3-0.1-0.7-0.2-1-0.3c-0.3-1.6-2-2.7-3.6-2.4c-0.8,0.2-1.5,0.7-2,1.4c-1.9-0.1-3.9-0.1-5.8,0.1
	c-4.1,0.5-8.1,1.6-11.9,3.2c-3.8,1.6-7.3,3.6-10.5,6.2c3.8-1.5,7.5-3,11.3-4.2c3.7-1.2,7.6-2.1,11.5-2.5c1.7-0.2,3.5-0.3,5.2-0.3
	c0.5,1.6,2.2,2.5,3.8,2c0.7-0.2,1.4-0.7,1.7-1.4l0.7,0.2c3.8,0.9,7.2,3.1,9.7,6.2C129.8,10,129.3,9.1,128.6,8.3z"/>
</svg>
